<?xml version="1.0" encoding="iso-8859-1"?>
<!-- Generator: Adobe Illustrator 19.0.0, SVG Export Plug-In . SVG Version: 6.00 Build 0)  -->
<svg xmlns="http://www.w3.org/2000/svg" xmlns:xlink="http://www.w3.org/1999/xlink" version="1.1" id="Layer_1" x="0px" y="0px" viewBox="0 0 511.998 511.998" style="enable-background:new 0 0 511.998 511.998;" xml:space="preserve">
<path style="fill:#B2F7EF;" d="M7.545,123.911v273.85c0,5.144,4.475,9.144,9.587,8.569h0.001  c15.681-1.767,31.872-2.661,48.125-2.661c56.882,0,117.395,10.871,179.856,32.312l10.631,3.921l0.001-0.069v0.069l11.424-3.921  c62.463-21.44,122.979-32.312,179.864-32.312c16.25,0,32.44,0.896,48.119,2.661l0,0c5.112,0.576,9.588-3.424,9.588-8.569v-273.85  c0-4.762-3.861-8.623-8.623-8.623H16.168C11.406,115.288,7.545,119.148,7.545,123.911z"/>
<path style="fill:#81F2C9;" d="M256.143,439.765V115.288H16.168c-4.762,0-8.623,3.861-8.623,8.623v273.85  c0,5.144,4.475,9.144,9.587,8.569h0.001c15.681-1.767,31.872-2.661,48.125-2.661c56.882,0,117.395,10.871,179.856,32.312  l10.631,3.921l0.001-0.069v0.069L256.143,439.765z"/>
<path style="fill:#F4D35E;" d="M452.263,72.63c-67.334,3.542-131.429,13.725-190.504,30.265l-3.433,0.961  c-1.521,0.426-3.13,0.426-4.651,0l-3.433-0.961c-59.08-16.54-123.175-26.723-190.505-30.265h-0.001  c-4.932-0.259-9.075,3.671-9.075,8.611v273.192c0,5.204,4.576,9.222,9.736,8.551l0,0c12.405-1.614,25.203-2.433,38.036-2.433  c46.265,0,95.458,10.547,146.212,31.351l11.355,4.874v0.001l11.355-4.874c50.753-20.802,99.948-31.351,146.217-31.351  c12.832,0,25.627,0.818,38.03,2.433h0.001c5.16,0.672,9.734-3.347,9.734-8.551V81.242C461.339,76.302,457.197,72.372,452.263,72.63  L452.263,72.63z"/>
<path style="fill:#F2BB4C;" d="M256.143,396.717V104.469l-0.143,0.04l-5.759-1.614C191.161,86.355,127.067,76.172,59.737,72.63  h-0.001c-4.934-0.259-9.075,3.671-9.075,8.611v273.192c0,5.204,4.576,9.222,9.736,8.551c12.405-1.614,25.203-2.433,38.036-2.433  c46.265,0,95.458,10.547,146.212,31.351l11.355,4.874v0.001L256.143,396.717z"/>
<path style="fill:#F2B5D4;" d="M169.184,249.476c-10.818-10.457-16.775-24.36-16.775-39.147s5.958-28.689,16.775-39.146  c10.813-10.45,25.189-16.206,40.478-16.206c15.29,0,29.665,5.756,40.477,16.206l5.105,4.935l5.104-4.935  c10.815-10.45,25.19-16.205,40.479-16.205c15.291,0,29.665,5.755,40.477,16.205c10.818,10.457,16.775,24.359,16.775,39.146  s-5.958,28.69-16.775,39.147l-86.061,83.178L169.184,249.476z"/>
<path style="fill:#F79CC6;" d="M245.394,249.476c-10.818-10.457-16.775-24.36-16.775-39.147s5.958-28.689,16.775-39.146  c0.772-0.746,1.566-1.461,2.374-2.158c-10.5-9.077-23.906-14.048-38.105-14.048c-15.289,0-29.665,5.756-40.478,16.206  c-10.817,10.457-16.775,24.359-16.775,39.146s5.958,28.69,16.775,39.147l86.059,83.178l38.105-36.828L245.394,249.476z"/>
<path d="M509.527,110.054c-1.581-1.523-3.706-2.325-5.906-2.259c-11.615,0.424-23.258,0.988-34.737,1.676V72.757  c0-2.206-0.901-4.316-2.495-5.841c-1.594-1.525-3.737-2.337-5.946-2.236c-72.495,3.2-141.258,13.98-204.443,32.02  C192.811,78.66,124.047,67.88,51.557,64.681c-2.236-0.103-4.353,0.711-5.947,2.236c-1.593,1.526-2.494,3.636-2.494,5.842v36.713  c-11.479-0.687-23.121-1.253-34.737-1.676c-2.218-0.067-4.327,0.736-5.906,2.259C0.892,111.578,0,113.68,0,115.874v291.032  c0,2.333,1.008,4.552,2.764,6.086c1.756,1.536,4.092,2.234,6.401,1.925c75.193-10.148,157.31,0.594,244.089,31.928  c0.077,0.027,0.154,0.046,0.231,0.072c0.066,0.022,0.13,0.042,0.196,0.061c0.345,0.103,0.694,0.186,1.046,0.243  c0.049,0.008,0.097,0.012,0.146,0.018c0.375,0.053,0.751,0.086,1.127,0.086h0.002c0.376,0,0.753-0.033,1.129-0.086  c0.047-0.007,0.095-0.011,0.142-0.018c0.355-0.056,0.707-0.14,1.055-0.245c0.059-0.018,0.119-0.037,0.178-0.056  c0.08-0.026,0.161-0.046,0.239-0.074c86.781-31.337,168.904-42.081,244.089-31.929c2.305,0.315,4.646-0.388,6.401-1.925  c1.757-1.535,2.764-3.753,2.764-6.086V115.874C512,113.68,511.107,111.578,509.527,110.054z M264.084,111.201  c58.508-16.382,121.892-26.447,188.632-29.958v273.191c-58.814-7.653-122.174,2.251-188.632,29.49v-49.322l82.462-79.701  c12.302-11.889,19.078-27.719,19.078-44.573c0-16.853-6.776-32.682-19.078-44.572c-22.403-21.653-57.278-24.047-82.462-7.219  V111.201z M247.916,383.923c-24.346-9.979-48.276-17.629-71.718-22.943c-5.045-1.144-9.837,2.734-9.837,7.906l0,0  c0,3.772,2.6,7.047,6.278,7.882c24.524,5.561,49.645,13.791,75.276,24.688v26.369c-81.8-28.079-159.656-38.182-231.747-30.065  V124.281c9.026,0.381,18.04,0.845,26.947,1.383v237.933c0,1.458,0.316,2.92,1.046,4.182c1.751,3.029,5.092,4.525,8.343,3.987  c24.765-4.046,50.463-4.728,76.966-2.084c4.777,0.476,8.934-3.24,8.934-8.042l0,0c0-4.161-3.157-7.649-7.297-8.062  c-11.018-1.099-21.913-1.651-32.674-1.651c-13.253,0-26.312,0.834-39.148,2.505V81.243c66.736,3.51,130.119,13.575,188.632,29.958  v48.362c-25.283-17.957-61.125-15.892-83.974,6.195c-12.302,11.889-19.078,27.719-19.078,44.572  c0,16.854,6.776,32.683,19.078,44.573l83.976,81.161V383.923z M255.243,320.661l-80.066-77.385  c-9.121-8.817-14.145-20.517-14.145-32.947c0-12.429,5.024-24.13,14.145-32.946c9.508-9.189,21.994-13.783,34.484-13.783  c12.487,0,24.978,4.595,34.484,13.783l5.479,5.297c3.131,3.029,8.103,3.031,11.238,0l5.479-5.297  c19.017-18.377,49.957-18.376,68.969,0c9.121,8.817,14.145,20.517,14.145,32.946c0,12.43-5.024,24.131-14.145,32.947  L255.243,320.661z M495.832,397.76c-72.087-8.115-149.945,1.987-231.747,30.065v-26.369  c69.466-29.532,135.186-39.529,195.411-29.687c2.344,0.385,4.732-0.281,6.539-1.818c1.808-1.536,2.85-3.789,2.85-6.16V125.665  c8.908-0.539,17.921-1.002,26.947-1.383V397.76z"/>
<g>
</g>
<g>
</g>
<g>
</g>
<g>
</g>
<g>
</g>
<g>
</g>
<g>
</g>
<g>
</g>
<g>
</g>
<g>
</g>
<g>
</g>
<g>
</g>
<g>
</g>
<g>
</g>
<g>
</g>
</svg>
